<?xml version="1.0" encoding="utf-8"?>
<!-- Generator: Adobe Illustrator 24.3.0, SVG Export Plug-In . SVG Version: 6.00 Build 0)  -->
<svg version="1.1" id="Layer_1" xmlns="http://www.w3.org/2000/svg" xmlns:xlink="http://www.w3.org/1999/xlink" x="0px" y="0px"
	 viewBox="0 0 841.9 595.3" style="enable-background:new 0 0 841.9 595.3;" xml:space="preserve">
<style type="text/css">
	.st0{fill:#9FB0E3;}
</style>
<g>
	<path class="st0" d="M690,428.9c-2.7,4.3-4.5,7.1-6.4,10.1c-6.1-3.2-11.9-6.4-17.8-9.3c-5.8-2.8-11.8-5.3-18.5-8.3
		c-0.1,2.7-0.3,4.5-0.3,6.3c0,16.9,0,33.8,0,50.7c0,12.3-5.8,18.1-18,18.2c-9.5,0-18.9,0-28.7,0c0,12.1,0,23.6,0,35.7
		c26.8,0,53.5,0,80.4,0c0,3.9,0,7.1,0,10.9c-172.6,0-345,0-517.9,0c0-3.4,0-6.8,0-10.8c131.5,0,263.1,0,395.1,0
		c0-39.9,0-79.3,0-119.5c-1.7,0-3.4,0-5.1,0c-8.8,0-17.6,0.1-26.4-0.1c-8.4-0.2-15-6.3-15.1-14.6c-0.2-18.5-0.3-37,0-55.5
		c0.1-8.6,7.8-15.4,16.3-15.5c8.7,0,16.3,7,16.6,15.8c0.3,10,0.1,20.1,0.1,30.1c0,1.9,0,3.8,0,6.1c4.6,0,8.8,0,13.5,0
		c0.1-2,0.3-4,0.3-6c0-28.7,0-57.4,0-86.1c0-11.9,6.7-20.6,16.9-22.3c13.3-2.3,24.4,6.9,24.8,20.7c0.2,8.4,0.1,16.9,0.1,25.4
		c0,48.4,0,96.9,0,145.3c0,2.1,0,4.2,0,6.7c4.6,0,8.9,0,13.8,0c0-2,0-3.9,0-5.7c0-19.5-0.1-39.1,0.1-58.6
		c0.1-8.2,6.2-15.1,13.9-16.2c8-1.2,16.1,3.4,18.3,11.1c1,3.6,1,7.7,0.9,11.5c-0.1,3.3,1.1,4.8,4.2,6.1
		C663.9,416.6,676.5,422.7,690,428.9z M588.5,532.1c0-1.9,0-3.5,0-5c0-79.6,0-159.2,0-238.8c0-1.2,0.1-2.5-0.1-3.7
		c-0.5-5.1-4.6-8.9-9.5-8.8c-4.6,0.1-8.7,3.6-9.3,8.5c-0.2,1.6-0.1,3.2-0.1,4.7c0,79.2,0,158.5,0,237.7c0,1.7,0,3.4,0,5.4
		C575.9,532.1,581.8,532.1,588.5,532.1z M600.1,485.5c9.6,0,18.7,0,27.9,0c6.9,0,7.9-1.1,7.9-8c0-25,0-50,0-75
		c0-1.6,0.4-3.6-0.4-4.6c-1.3-1.7-3.5-4-5.3-3.9c-1.7,0-3.8,2.4-4.9,4.3c-0.8,1.3-0.3,3.4-0.3,5.2c0,21.5,0,43,0,64.4
		c0,2.1,0,4.1,0,6.8c-8.7,0-16.7,0-24.9,0C600.1,478.4,600.1,481.5,600.1,485.5z M533.1,391c0-2.9,0-5,0-7.1c0-12.9,0-25.7,0-38.6
		c0-3.5-1.3-6.4-5.4-6.4c-3.7,0-5.4,2.5-5.4,5.8c-0.1,17.3-0.1,34.5,0,51.8c0,3.8,2.2,5.3,5.8,5.2c8.5,0,16.9,0,25.4,0
		c1.5,0,3-0.3,4.4-0.4c0-3.6,0-6.7,0-10.3C549.6,391,541.8,391,533.1,391z"/>
	<path class="st0" d="M255.7,413.7c0,8.9,0,17,0,24.9c13.7-2.4,27.1-5.3,40.6-7.1c22.6-3.1,45.3-3.1,67.9-0.1
		c2.5,0.3,5.8-0.9,7.9-2.5c35.9-28.8,76.7-42.8,122.8-41.1c1.2,0,2.5,0.2,3.7,0.4c0.9,0.1,1.7,0.3,3.1,0.5c-0.3,3.5-0.6,6.8-1,10.7
		c-43.5-3-82.2,9-117.7,35.3c23.9,5.8,45.7,14.3,65.9,26.9c-1.7,2.8-3.1,5.2-4.6,7.6c-0.4,0.6-0.9,1.1-1.4,1.8
		c-18.3-11-37.6-19.2-58.3-24.2c-41.5-10.1-82.8-7.6-123.8,2.8c-34.9,8.8-67.6,22.6-98.4,41.1c-0.7,0.4-1.5,0.8-2.6,1.3
		c-2-2.9-3.9-5.8-6.3-9.3c6.4-3.7,12.3-7.5,18.6-10.5c12.5-6.1,25.1-11.9,37.7-17.6c2.4-1.1,4-2.1,4-5.2
		c-0.1-32.2-0.1-64.5-0.1-96.7c0-0.8-0.2-1.7-0.4-3.1c-9.6,0-19.1,0-28.5,0c-12.3,0-18.1-5.8-18.2-18.1c0-12-0.1-24,0-35.9
		c0.1-10.5,7.2-18,16.8-17.8c9.4,0.1,16.2,7.5,16.4,17.7c0.1,6.3,0.1,12.7,0.1,19c0,0.3,0.2,0.7,0.4,1.4c4.2,0,8.5,0,13.5,0
		c0-2,0-3.9,0-5.8c0-15-0.2-29.9,0.1-44.9c0.2-11,7.1-19.2,17.1-21.1c9.5-1.8,19.5,3.7,22.9,13c1.2,3.2,1.6,6.9,1.6,10.3
		c0.1,35.2,0.1,70.4,0.1,105.7c0,2.1,0,4.2,0,6.8c4.5,0,8.8,0,13.8,0c0-1.6,0-3.2,0-4.9c0-10.4-0.1-20.8,0-31.2
		c0.1-9.4,7.1-16.5,16.2-16.7c9-0.2,16.6,6.3,16.8,15.4c0.4,18.8,0.4,37.7,0,56.5c-0.2,8.8-6.9,14.5-16.2,14.7
		C276.2,413.8,266.2,413.7,255.7,413.7z M225,448.5c4.9-1.6,9-3.2,13.3-4.1c4.5-1,6-3,5.9-7.9c-0.2-55.9-0.1-111.9-0.1-167.8
		c0-1.6,0.1-3.2-0.1-4.7c-0.5-5-4.1-8.5-8.9-8.7c-4.8-0.2-8.9,2.9-9.8,7.8c-0.3,1.9-0.2,3.9-0.2,5.8c0,57.9,0,115.8,0,173.7
		C225,444.2,225,445.9,225,448.5z M255.7,402.4c10,0,19.6-0.1,29.2,0c4.9,0.1,6.5-2.2,6.5-6.8c-0.1-16.7-0.1-33.4,0-50.1
		c0-4-1.2-7.3-5.7-7.3c-4.2,0.1-5.2,3.3-5.2,7.1c0.1,13.4,0,26.7,0,40.1c0,1.9,0,3.8,0,6.2c-8.7,0-16.6,0-24.8,0
		C255.7,395.4,255.7,398.5,255.7,402.4z M213.4,327.4c-8.2,0-16.4,0-24.8,0c0-11.2,0.1-21.6,0-32c0-3.6-1.5-6.3-5.6-6.2
		c-3.8,0.1-5.2,2.7-5.2,6c-0.1,12.7-0.2,25.4,0.1,38c0,1.6,2.4,4.6,3.7,4.6c10.5,0.4,21,0.2,31.7,0.2
		C213.4,334.6,213.4,331.7,213.4,327.4z"/>
	<path class="st0" d="M306.6,154.8c0-1.7,0-3.5,0-5.2c0-1.5,0.2-3.1,0.3-5.2c29.7,0,59.2,0,88.6,0c1.1-12.1-6.3-24.1-17.7-29.2
		c-12-5.5-26.3-2.7-35.4,7c-3.5,3.7-6.7,7.7-11.2,11.4c0-4.2,0-8.5,0-12.7c0-13.5-4.3-25.2-14.3-34.5c-14.2-13.1-35.3-15.5-52-6
		c-16.7,9.6-25.4,29.4-21.1,48.4c0.4,1.7,0.8,3.4,1.3,5.2c-3.1,1.8-6.1,3.5-9.2,5.2c-15.1-11.2-30.4-9.3-35.9,5.3
		c20.9,0,41.5,0,62.4,0c0,3.9,0,7.1,0,10.8c-25.5,0-50.7,0-75.9,0c-1.6-21.1,17.9-41,44.7-32.9c0-18.6,6.1-34.4,20.6-46.5
		c9.2-7.7,20-11.7,31.9-12.4c26.8-1.6,45.8,12.9,58.1,44.4c9.9-5.8,20.5-8.1,31.9-5.7c22.6,4.8,37.4,27,32.6,49.7
		c-0.3,1.5-2.5,3.6-3.8,3.6c-31.3,0.2-62.7,0.1-94,0C308.2,155.4,307.9,155.2,306.6,154.8z"/>
	<path class="st0" d="M473.2,275.1c22.7-1.8,36.3,9.5,34.8,29.3c-20.1,0-40.3,0-60.7,0c0-3.5,0-6.7,0-10.7c15.4,0,30.9,0,46.8,0
		c-4.8-9.5-14.8-10.2-25.4-2.3c-2.9-1.6-5.9-3.3-9.2-5.1c3.7-11.2,2.4-21.5-4-30.9c-8.1-11.9-22.9-17.1-36.7-13.2
		c-14,4-23.8,16.6-24.4,31.6c-0.2,5.1,0,10.2,0,16.7c-4.3-4.9-7.5-8.9-11.1-12.6c-6.3-6.5-14-8.7-22.7-6.2
		c-8.3,2.4-14.1,7.7-16.4,16.3c-0.3,1-0.5,2-0.6,3.1c-0.1,0.7,0.1,1.4,0.2,2.5c22.7,0,45.4,0,68.4,0c0,3.9,0,7.3,0,11
		c-1.9,0.1-3.4,0.3-5,0.3c-22.9,0-45.8-0.1-68.7,0.1c-3.6,0-5.2-0.7-5.8-4.7c-2-13.4,1.6-24.5,12.3-32.8c11-8.6,23.2-10.2,36.2-4.7
		c1,0.4,1.9,0.8,2.9,1.2c10.9-25.5,26.4-36,49.8-33.7C454.9,232.1,467.5,246.4,473.2,275.1z"/>
	<path class="st0" d="M533.3,130.2c0-20.5,16.5-37,36.9-36.9c20.4,0,37.1,16.7,37,37c0,20.3-16.7,36.9-37.1,37
		C549.7,167.2,533.2,150.7,533.3,130.2z M595.8,130.1c-0.1-14-11.6-25.6-25.6-25.6c-14.1-0.1-26,11.8-25.9,25.9
		c0.1,13.9,11.7,25.6,25.6,25.7C584.2,156.1,595.9,144.4,595.8,130.1z"/>
	<path class="st0" d="M575.4,77.3c-3.4,0-6.7,0-10.5,0c0-8.9,0-17.8,0-27.1c3.2,0,6.6,0,10.5,0C575.4,59,575.4,68,575.4,77.3z"/>
	<path class="st0" d="M564.9,183.2c3.5,0,6.8,0,10.5,0c0,9.1,0,18.1,0,27.3c-3.5,0-6.7,0-10.5,0
		C564.9,201.6,564.9,192.7,564.9,183.2z"/>
	<path class="st0" d="M489.9,135.5c0-3.6,0-6.9,0-10.6c9,0,17.9,0,27.2,0c0,3.4,0,6.8,0,10.6C508.3,135.5,499.4,135.5,489.9,135.5z"
		/>
	<path class="st0" d="M650.3,135.7c-9.1,0-17.8,0-26.9,0c0-3.6,0-7,0-10.8c8.8,0,17.7,0,26.9,0C650.3,128.3,650.3,131.7,650.3,135.7
		z"/>
	<path class="st0" d="M509.9,76.6c2.2-1.9,4.8-4.2,7.1-6.3c6.1,6.1,12.6,12.5,19.2,19.1c-2.1,2.1-4.6,4.6-6.8,6.8
		C522.8,89.7,516.5,83.3,509.9,76.6z"/>
	<path class="st0" d="M623.6,69.9c2.1,2.2,4.6,4.7,6.7,6.9c-6.5,6.5-12.9,12.9-19.4,19.4c-2.1-2.3-4.4-4.8-6.6-7.1
		C610.5,83,616.8,76.7,623.6,69.9z"/>
	<path class="st0" d="M516.7,190.4c-2.2-2.2-4.7-4.6-7.1-6.9c6.6-6.5,12.9-12.8,19.2-19.1c2.1,2.2,4.6,4.8,6.8,7
		C529.6,177.5,523.2,183.9,516.7,190.4z"/>
	<path class="st0" d="M630.3,183.8c-2,2-4.5,4.4-6.7,6.6c-6.5-6.6-12.9-13-19.5-19.6c2.1-1.9,4.6-4.3,6.9-6.4
		C617.2,170.7,623.6,177.1,630.3,183.8z"/>
	<path class="st0" d="M389.9,483.4c0-4.4,0-7.5,0-11c6,0,11.9,0,18,0c0.2,0.4,0.5,0.8,0.6,1.3c0.7,9.7,0.7,9.7-9,9.7
		C396.2,483.4,393.1,483.4,389.9,483.4z"/>
	<path class="st0" d="M465.8,479.7c6.1,0,11.9,0,17.9,0c0,3.6,0,7,0,10.7c-6,0-11.7,0-17.9,0C465.8,486.9,465.8,483.5,465.8,479.7z"
		/>
	<path class="st0" d="M310.3,466.5c-6.2,0-11.9,0-18,0c0-3.6,0-7,0-10.8c6,0,11.8,0,18,0C310.3,459.2,310.3,462.6,310.3,466.5z"/>
	<path class="st0" d="M294.7,155.2c-6.4,0-12.7,0-19.2,0c0-3.6,0-6.8,0-10.5c6.4,0,12.6,0,19.2,0
		C294.7,148.1,294.7,151.5,294.7,155.2z"/>
	<path class="st0" d="M680.5,466.5c-6.3,0-11.9,0-18,0c0-3.6,0-7,0-10.8c5.9,0,11.8,0,18,0C680.5,459.2,680.5,462.6,680.5,466.5z"/>
	<path class="st0" d="M519.6,474.9c-5.9,0-11.6,0-17.7,0c0-3.6,0-7.1,0-10.9c5.9,0,11.6,0,17.7,0
		C519.6,467.6,519.6,471.1,519.6,474.9z"/>
	<path class="st0" d="M346.7,482.2c0,3.8,0,7.1,0,10.7c-6.1,0-11.9,0-18.1,0c0-3.5,0-6.9,0-10.7
		C334.5,482.2,340.4,482.2,346.7,482.2z"/>
	<path class="st0" d="M635.9,521.5c0-3.7,0-7.1,0-10.8c6.1,0,12,0,18.1,0c0,3.7,0,7.1,0,10.8C647.8,521.5,642,521.5,635.9,521.5z"/>
	<path class="st0" d="M527.4,434.2c6.1,0,12,0,18.2,0c0,3.6,0,6.8,0,10.4c-6.1,0-11.9,0-18.2,0C527.4,441.3,527.4,438,527.4,434.2z"
		/>
	<path class="st0" d="M248.6,475.6c0,3.4,0,6.7,0,10.3c-6.1,0-12,0-18.2,0c0-3.4,0-6.6,0-10.3C236.4,475.6,242.3,475.6,248.6,475.6z
		"/>
	<path class="st0" d="M278.5,501.5c6.1,0,12,0,18.2,0c0,3.6,0,6.8,0,10.5c-6,0-11.9,0-18.2,0C278.5,508.7,278.5,505.3,278.5,501.5z"
		/>
	<path class="st0" d="M214.3,506c0,3.5,0,6.8,0,10.3c-6.1,0-12,0-18.2,0c0-3.4,0-6.6,0-10.3C202,506,207.8,506,214.3,506z"/>
	<path class="st0" d="M361.4,518.7c0-3.7,0-6.8,0-10.4c6.1,0,12.1,0,18.4,0c0,3.5,0,6.7,0,10.4C373.6,518.7,367.7,518.7,361.4,518.7
		z"/>
	<path class="st0" d="M444.9,518.7c-6,0-11.8,0-18,0c0-3.4,0-6.7,0-10.4c5.8,0,11.7,0,18,0C444.9,511.6,444.9,514.9,444.9,518.7z"/>
	<path class="st0" d="M512.7,518.7c0-3.7,0-6.8,0-10.4c6.1,0,12.1,0,18.4,0c0,3.3,0,6.7,0,10.4C524.9,518.7,519.1,518.7,512.7,518.7
		z"/>
	<path class="st0" d="M449.8,433c0-3.7,0-6.8,0-10.4c6,0,11.8,0,18.1,0c0,3.3,0,6.7,0,10.4C461.9,433,456.1,433,449.8,433z"/>
	<path class="st0" d="M437,293.7c0,3.5,0,6.8,0,10.5c-5,0-9.9,0-15.2,0c0-3.4,0-6.8,0-10.5C426.7,293.7,431.6,293.7,437,293.7z"/>
</g>
</svg>
