<?xml version="1.0" encoding="utf-8"?>
<!-- Generator: Adobe Illustrator 24.3.0, SVG Export Plug-In . SVG Version: 6.00 Build 0)  -->
<svg version="1.1" id="Layer_1" xmlns="http://www.w3.org/2000/svg" xmlns:xlink="http://www.w3.org/1999/xlink" x="0px" y="0px"
	 viewBox="0 0 395.9 351" style="enable-background:new 0 0 395.9 351;" xml:space="preserve">
<style type="text/css">
	.st0{fill:#D9DBF1;}
</style>
<g>
	<path class="st0" d="M7,56.4c0.6-2.4,1.1-4.8,1.8-7.2c5.7-21.6,24.7-38.6,46.3-41.5c23.7-3.2,45.5,6.9,57.2,27.1
		c6.7,11.7,16.8,16.9,29.9,17c7.7,0.1,15.5,0.1,23.2,0c13.1-0.2,23.1-5.4,29.8-17.1c11-19.2,33.4-30.5,54.2-27.5
		c24.5,3.5,40.9,17,48,40.7c8,26.9-5.9,55.6-31.8,66.7c-25.7,11.1-55.9,1.6-70-22.6c-7.3-12.5-17.8-17.9-31.8-17.7
		c-9.5,0.1-19-0.2-28.4,0.7c-10.1,1-17.6,6.7-22.8,15.7c-12.2,21.2-35.5,31.9-59,27.6C30,114,11.8,95.4,7.7,71.5
		c-0.1-0.6-0.4-1.1-0.7-1.7C7,65.3,7,60.8,7,56.4z M254.6,52.1c-7.5,0-14.8,0-22,0c0,7.5,0,14.8,0,22c7.5,0,14.6,0,22,0
		C254.6,66.8,254.6,59.6,254.6,52.1z"/>
	<path class="st0" d="M7,280.9c0.6-2.4,1.1-4.8,1.8-7.2c5.7-21.6,24.7-38.6,46.3-41.5c23.7-3.2,45.5,6.9,57.2,27.1
		c6.7,11.7,16.8,16.9,29.9,17c7.7,0.1,15.5,0.1,23.2,0c13.1-0.2,23.1-5.4,29.8-17.1c11-19.2,33.4-30.5,54.2-27.5
		c24.5,3.5,40.9,17,48,40.7c8,26.9-5.9,55.6-31.8,66.7c-25.7,11.1-55.9,1.6-70-22.6c-7.3-12.5-17.8-17.9-31.8-17.7
		c-9.5,0.1-19-0.2-28.4,0.7c-10.1,1-17.6,6.7-22.8,15.7c-12.2,21.2-35.5,31.9-59,27.6c-23.6-4.4-41.8-22.9-46-46.8
		c-0.1-0.6-0.4-1.1-0.7-1.7C7,289.9,7,285.4,7,280.9z M232.6,276.5c0,7.6,0,14.9,0,22.1c7.5,0,14.8,0,21.9,0c0-7.5,0-14.8,0-22.1
		C247.1,276.5,240,276.5,232.6,276.5z"/>
	<path class="st0" d="M243.5,186.6c-3.9,0-7.7-0.1-11.6,0c-13.1,0.2-23.1,5.4-29.9,17.1c-11,19.2-33.4,30.5-54.2,27.5
		c-24.5-3.5-40.9-17-48-40.7c-8-26.8,5.8-55.3,31.4-66.6c25.5-11.2,56-1.9,70.2,22.2c7.6,12.9,18.3,18.4,32.7,18.1
		c9.2-0.2,18.5,0.2,27.6-0.8c10.1-1.1,17.7-6.7,22.8-15.7c12.1-21,34.2-31.4,58.3-27.7c22.6,3.5,41.2,21.4,46.2,44.4
		c6.6,30.3-15.5,61.9-46.6,66.4c-24.3,3.5-45.8-6.8-58.2-28c-6.2-10.6-15.6-15.4-27.4-16.1C252.5,186.4,248,186.6,243.5,186.6
		C243.5,186.6,243.5,186.6,243.5,186.6z M142.6,186.4c7.6,0,14.8,0,22.1,0c0-7.4,0-14.7,0-22c-7.5,0-14.7,0-22.1,0
		C142.6,171.8,142.6,179,142.6,186.4z"/>
</g>
</svg>
